<svg xmlns="http://www.w3.org/2000/svg" width="20" height="20" viewBox="0 0 20 20" fill="none">
    <path d="M15.3033 3.86334C16.6803 5.24012 17.4678 7.09844 17.4994 9.04535C17.5309 10.9923 16.8041 12.8751 15.4725 14.2958L15.3033 14.4708L11.7675 18.0058C11.3189 18.4542 10.7166 18.7153 10.0826 18.7362C9.44869 18.757 8.83052 18.5362 8.35333 18.1183L8.23333 18.0058L4.69667 14.47C3.29014 13.0635 2.49995 11.1558 2.49995 9.16667C2.49995 7.17754 3.29014 5.26987 4.69667 3.86334C6.1032 2.45681 8.01086 1.66663 10 1.66663C11.9891 1.66663 13.8968 2.45681 15.3033 3.86334ZM10 6.66667C9.6717 6.66667 9.34661 6.73134 9.04329 6.85697C8.73998 6.98261 8.46438 7.16676 8.23223 7.3989C8.00009 7.63105 7.81594 7.90665 7.6903 8.20996C7.56466 8.51328 7.5 8.83837 7.5 9.16667C7.5 9.49498 7.56466 9.82007 7.6903 10.1234C7.81594 10.4267 8.00009 10.7023 8.23223 10.9344C8.46438 11.1666 8.73998 11.3507 9.04329 11.4764C9.34661 11.602 9.6717 11.6667 10 11.6667C10.663 11.6667 11.2989 11.4033 11.7678 10.9344C12.2366 10.4656 12.5 9.82971 12.5 9.16667C12.5 8.50363 12.2366 7.86775 11.7678 7.3989C11.2989 6.93006 10.663 6.66667 10 6.66667Z" fill="#095EF1"/>
</svg>